<svg version="1.1" xmlns="http://www.w3.org/2000/svg" viewBox="0 0 68.33334350585949 71.46861644987311" width="205.00003051757847" height="214.40584934961933">
  <!-- svg-source:excalidraw -->
  
  <defs>
    <style class="style-fonts">
      @font-face {
        font-family: "Virgil";
        src: url("https://excalidraw.com/Virgil.woff2");
      }
      @font-face {
        font-family: "Cascadia";
        src: url("https://excalidraw.com/Cascadia.woff2");
      }
    </style>
  </defs>
  <g transform="translate(19.431143241600182 14.129969706131845) rotate(0 14.994140625 21.599999999999994)"><text x="0" y="0" font-family="Helvetica, Segoe UI Emoji" font-size="36px" fill="#000000" text-anchor="start" style="white-space: pre;" direction="ltr" dominant-baseline="text-before-edge">M</text></g><g stroke-linecap="round" transform="translate(10.000000000000057 11.87162504286681) rotate(0 23.333343505859403 24.16666412353517)"><path d="M18.45 0.62 C22.98 -0.66, 29.89 1.17, 34.33 3.48 C38.76 5.8, 43.15 9.85, 45.07 14.51 C46.99 19.17, 47.55 26.51, 45.83 31.45 C44.11 36.39, 39.11 41.54, 34.74 44.15 C30.37 46.77, 24.5 47.78, 19.6 47.13 C14.7 46.49, 8.74 44.05, 5.34 40.28 C1.94 36.52, -0.78 29.57, -0.81 24.55 C-0.83 19.52, 1.53 14.3, 5.21 10.14 C8.88 5.98, 17.65 1.2, 21.22 -0.41 C24.79 -2.01, 26.43 0.13, 26.61 0.5 M29.06 1.64 C34.11 2.36, 39.77 4.16, 42.72 7.99 C45.67 11.83, 47.02 19.27, 46.74 24.67 C46.45 30.08, 44.24 36.28, 41.02 40.44 C37.8 44.59, 32.38 48.96, 27.4 49.59 C22.43 50.22, 15.35 47.44, 11.16 44.22 C6.97 40.99, 3.65 35.02, 2.27 30.24 C0.88 25.45, 1.16 19.99, 2.86 15.53 C4.55 11.06, 8.27 5.68, 12.45 3.43 C16.63 1.19, 25.39 2.54, 27.95 2.05 C30.51 1.57, 27.9 0.17, 27.81 0.54" stroke="#000000" stroke-width="1" fill="none"></path></g><g stroke-linecap="round" transform="translate(10.000000000000057 10) rotate(0 24.166671752929716 25.734308224936555)"><path d="M12.08 0 M12.08 0 C21.19 -0.48, 30.68 0.17, 36.25 0 M12.08 0 C20.74 0.73, 29.05 0.67, 36.25 0 M36.25 0 C45.1 -0.13, 49.27 3.46, 48.33 12.08 M36.25 0 C46.58 -0.71, 47.56 3.32, 48.33 12.08 M48.33 12.08 C49.89 24.07, 47.74 35.1, 48.33 39.39 M48.33 12.08 C47.23 17.77, 48.18 24.52, 48.33 39.39 M48.33 39.39 C48.09 47.81, 44.03 52.1, 36.25 51.47 M48.33 39.39 C49.41 46.1, 43.74 50.52, 36.25 51.47 M36.25 51.47 C31.11 49.89, 27.03 50.12, 12.08 51.47 M36.25 51.47 C32.15 51.95, 27.04 52.35, 12.08 51.47 M12.08 51.47 C4.13 52.32, -1.7 47.77, 0 39.39 M12.08 51.47 C2.19 50.79, -1.24 47.53, 0 39.39 M0 39.39 C-1.44 31.51, -1.67 25.15, 0 12.08 M0 39.39 C0.68 30.59, 0.55 20.31, 0 12.08 M0 12.08 C0.4 2.31, 5.62 -1.39, 12.08 0 M0 12.08 C-2.04 4.86, 2.77 -0.33, 12.08 0" stroke="#000000" stroke-width="1" fill="none"></path></g></svg>